<svg width="19" height="21" viewBox="0 0 19 21" fill="none" xmlns="http://www.w3.org/2000/svg">
<path opacity="0.4" d="M18.1838 19.337C17.7516 19.7692 17.1654 20.012 16.5541 20.012C15.9428 20.012 15.3566 19.7692 14.9244 19.337L9.83258 13.5172L4.74078 19.335C4.5274 19.5519 4.27319 19.7244 3.99281 19.8426C3.71243 19.9607 3.41143 20.0222 3.10717 20.0234C2.80292 20.0247 2.50143 19.9656 2.2201 19.8498C1.93876 19.7339 1.68315 19.5635 1.46801 19.3484C1.25287 19.1332 1.08245 18.8776 0.966592 18.5963C0.85073 18.3149 0.791716 18.0135 0.792955 17.7092C0.794194 17.4049 0.855661 17.104 0.973809 16.8236C1.09196 16.5432 1.26445 16.289 1.48134 16.0756L6.77865 10.0254L1.47942 3.97128C1.26253 3.7579 1.09004 3.50369 0.971889 3.22331C0.85374 2.94293 0.792274 2.64193 0.791035 2.33767C0.789796 2.03342 0.848809 1.73193 0.964671 1.4506C1.08053 1.16926 1.25095 0.913655 1.46609 0.698513C1.68123 0.483371 1.93684 0.312954 2.21818 0.197093C2.49951 0.0812313 2.801 0.0222177 3.10525 0.0234566C3.40951 0.0246955 3.7105 0.086162 3.99089 0.204311C4.27127 0.322459 4.52548 0.494953 4.73886 0.711839L9.83258 6.53351L14.9244 0.711839C15.1378 0.494953 15.392 0.322459 15.6724 0.204311C15.9527 0.086162 16.2537 0.0246955 16.558 0.0234566C16.8622 0.0222177 17.1637 0.0812313 17.4451 0.197093C17.7264 0.312954 17.982 0.483371 18.1972 0.698513C18.4123 0.913655 18.5827 1.16926 18.6986 1.4506C18.8144 1.73193 18.8734 2.03342 18.8722 2.33767C18.871 2.64193 18.8095 2.94293 18.6914 3.22331C18.5732 3.50369 18.4007 3.7579 18.1838 3.97128L12.8865 10.0254L18.1838 16.0756C18.3981 16.2897 18.5681 16.5439 18.6841 16.8237C18.8001 17.1035 18.8598 17.4034 18.8598 17.7063C18.8598 18.0092 18.8001 18.3091 18.6841 18.5889C18.5681 18.8687 18.3981 19.1229 18.1838 19.337Z" fill="white"/>
</svg>
